<svg width="730" height="902" viewBox="0 0 730 902" fill="none" xmlns="http://www.w3.org/2000/svg" style="">
<g opacity="0.2">
<path d="M608.753 801.819C445.633 689.151 370.943 576.069 333.269 489.483C301.866 417.298 308.94 392.807 270.774 335.225C187.947 210.271 -1.02346 90.764 -122.113 149.527C-181.763 178.474 -176.83 235.519 -225.46 328.85C-269.208 412.808 -354.988 521.803 -541.519 616.665" stroke="#6536F1" stroke-width="0.903173" stroke-miterlimit="10" class="QftVxylD_0"></path>
<path d="M613.869 780.069C453.286 678.083 378.24 570.491 339.421 488.558C306.763 419.603 308.703 395.821 267.259 338.234C180.319 217.428 3.1948 103.84 -116.613 156.945C-178.325 184.295 -179.643 238.804 -232.239 330.823C-278.545 411.836 -364.911 518.448 -548.506 612.779" stroke="#6536F1" stroke-width="0.903173" stroke-miterlimit="10" class="QftVxylD_1"></path>
<path d="M618.985 758.323C460.941 667.016 385.471 564.875 345.563 487.631C311.566 421.826 308.551 398.854 263.735 341.241C172.953 224.536 7.14202 116.689 -111.128 164.356C-175.021 190.11 -182.37 242.058 -239.031 332.79C-287.792 410.861 -374.846 515.08 -555.513 608.871" stroke="#6536F1" stroke-width="0.903173" stroke-miterlimit="10" class="QftVxylD_2"></path>
<path d="M624.101 736.574C468.599 655.946 392.614 559.214 351.711 486.686C316.323 423.977 308.5 401.89 260.198 344.248C165.828 231.578 10.8404 129.296 -105.65 171.769C-171.837 195.896 -185.004 245.29 -245.833 334.757C-296.917 409.897 -384.789 511.71 -562.508 604.976" stroke="#6536F1" stroke-width="0.903173" stroke-miterlimit="10" class="QftVxylD_3"></path>
<path d="M629.215 714.827C476.235 644.881 399.645 553.525 357.848 485.773C321.005 426.058 308.508 404.912 256.692 347.259C158.967 238.556 14.3485 141.663 -100.145 179.188C-168.741 201.669 -187.51 248.529 -252.607 336.732C-305.916 408.96 -394.709 508.35 -569.481 601.071" stroke="#6536F1" stroke-width="0.903173" stroke-miterlimit="10" class="QftVxylD_4"></path>
<path d="M634.331 693.081C483.904 633.817 406.557 547.802 363.99 484.846C325.597 428.062 308.645 407.922 253.167 350.269C152.3 245.438 17.6478 153.782 -94.6535 186.601C-165.76 207.383 -189.903 251.777 -259.397 338.702C-314.82 408.049 -404.64 504.983 -576.481 597.191" stroke="#6536F1" stroke-width="0.903173" stroke-miterlimit="10" class="QftVxylD_5"></path>
<path d="M639.446 671.334C491.557 622.765 413.319 542.074 370.133 483.918C330.09 429.996 308.85 410.898 249.646 353.276C145.816 252.226 20.7816 165.655 -89.1627 194.016C-162.869 213.03 -192.228 255.042 -266.185 340.67C-323.627 407.175 -414.584 501.613 -583.472 593.293" stroke="#6536F1" stroke-width="0.903173" stroke-miterlimit="10" class="QftVxylD_6"></path>
<path d="M644.55 649.582C499.203 611.683 419.905 536.336 376.263 482.988C334.447 431.87 309.109 413.824 246.114 356.281C139.487 258.911 23.7559 177.288 -83.6843 201.429C-160.077 218.592 -194.44 258.342 -272.987 342.637C-332.332 406.344 -424.499 498.241 -590.467 589.399" stroke="#6536F1" stroke-width="0.903173" stroke-miterlimit="10" class="QftVxylD_7"></path>
<path d="M649.678 627.839C506.872 600.62 426.33 530.627 382.418 482.061C338.679 433.7 309.496 416.693 242.601 359.294C133.31 265.493 26.631 188.69 -78.1808 208.845C-157.342 224.06 -196.528 261.706 -279.764 344.611C-340.958 405.561 -434.434 494.886 -597.479 585.499" stroke="#6536F1" stroke-width="0.903173" stroke-miterlimit="10" class="QftVxylD_8"></path>
<path d="M654.791 606.102C514.522 589.561 432.545 524.972 388.558 481.143C342.769 435.52 309.917 419.539 239.078 362.311C127.258 271.982 29.415 199.885 -72.6921 216.27C-154.666 229.423 -198.535 265.138 -286.555 346.591C-349.506 404.843 -444.37 491.528 -604.457 581.619" stroke="#6536F1" stroke-width="0.903173" stroke-miterlimit="10" class="QftVxylD_9"></path>
<path d="M659.909 584.343C522.163 578.481 438.559 519.367 394.698 480.205C346.678 437.326 310.403 422.282 235.554 365.312C121.295 278.343 32.1247 210.846 -67.1997 223.673C-152.046 234.632 -200.445 268.629 -293.343 348.552C-357.98 404.162 -454.3 488.152 -611.45 577.708" stroke="#6536F1" stroke-width="0.903173" stroke-miterlimit="10" class="QftVxylD_10"></path>
<path d="M665.024 562.596C529.834 567.421 444.37 513.873 400.841 479.277C350.407 439.191 310.932 424.957 232.033 368.319C115.41 284.609 34.7822 221.622 -61.7095 231.088C-149.465 239.696 -202.275 272.215 -300.132 350.519C-366.4 403.549 -464.232 484.788 -618.444 573.817" stroke="#6536F1" stroke-width="0.903173" stroke-miterlimit="10" class="QftVxylD_11"></path>
<path d="M670.14 540.847C537.49 556.354 449.996 508.512 406.984 478.347C353.953 441.157 311.538 427.565 228.509 371.326C109.585 290.773 37.4177 232.214 -56.222 238.503C-146.896 244.595 -204.027 275.893 -306.921 352.49C-374.769 402.997 -474.163 481.421 -625.439 569.922" stroke="#6536F1" stroke-width="0.903173" stroke-miterlimit="10" class="QftVxylD_12"></path>
<path d="M675.256 519.101C545.144 545.286 455.456 503.306 413.127 477.42C357.315 443.288 312.172 430.088 224.995 374.339C103.815 296.845 40.0505 242.655 -50.7234 245.918C-144.35 249.3 -205.702 279.68 -313.703 354.462C-383.102 402.509 -484.095 478.064 -632.428 566.019" stroke="#6536F1" stroke-width="0.903173" stroke-miterlimit="10" class="QftVxylD_13"></path>
<path d="M680.371 497.355C552.798 534.222 460.786 498.282 419.282 476.496C360.526 445.657 312.852 432.533 221.477 377.347C98.0719 302.818 42.7075 252.913 -45.2267 253.335C-141.784 253.798 -207.322 283.574 -320.489 356.443C-391.392 402.095 -494.018 474.702 -639.416 562.145" stroke="#6536F1" stroke-width="0.903173" stroke-miterlimit="10" class="QftVxylD_14"></path>
<path d="M685.488 475.606C560.439 523.152 466.032 493.454 425.411 475.565C363.581 448.336 313.539 434.888 217.943 380.355C92.345 308.691 45.3776 263.042 -39.748 260.745C-139.208 258.067 -208.905 287.567 -327.288 358.399C-399.688 401.718 -503.959 471.323 -646.418 558.236" stroke="#6536F1" stroke-width="0.903173" stroke-miterlimit="10" class="QftVxylD_15"></path>
<path d="M690.587 453.855C568.095 512.084 473.533 477.862 431.538 474.63C362.849 469.348 314.245 437.153 214.403 383.357C86.6111 314.494 48.1133 273.045 -34.2573 268.16C-136.568 262.083 -210.444 291.701 -334.077 360.369C-407.956 401.406 -513.89 467.956 -653.41 554.328" stroke="#6536F1" stroke-width="0.903173" stroke-miterlimit="10" class="QftVxylD_16"></path>
<path d="M695.717 432.112C575.762 501.02 477.842 475.216 437.695 473.707C367.331 471.059 315.002 439.346 210.897 386.369C80.8871 320.197 50.9386 282.935 -28.768 275.575C-133.857 265.852 -211.953 295.939 -340.869 362.345C-416.228 401.159 -523.824 464.598 -660.408 550.452" stroke="#6536F1" stroke-width="0.903173" stroke-miterlimit="10" class="QftVxylD_17"></path>
<path d="M700.834 410.363C583.417 489.957 482.513 473.03 443.838 472.779C371.644 472.31 315.759 441.45 207.376 389.364C75.1562 325.839 53.852 292.741 -23.2729 282.973C-131.042 269.326 -213.438 300.282 -347.653 364.295C-424.491 400.94 -533.755 461.216 -667.398 546.536" stroke="#6536F1" stroke-width="0.903173" stroke-miterlimit="10" class="QftVxylD_18"></path>
<path d="M705.949 388.617C591.074 478.89 487.579 476.102 449.977 471.852C375.918 463.459 316.515 443.474 203.851 392.377C69.3977 331.412 56.8754 302.483 -17.7867 290.394C-128.103 272.543 -214.92 304.779 -354.452 366.279C-432.783 400.807 -543.694 457.857 -674.398 542.656" stroke="#6536F1" stroke-width="0.903173" stroke-miterlimit="10" class="QftVxylD_19"></path>
<path d="M711.065 366.87C598.73 467.823 493.394 472.151 456.124 470.922C379.497 468.393 317.285 445.418 200.333 395.388C63.6284 336.919 60.0392 312.161 -12.2926 297.811C-125.002 275.447 -216.392 309.348 -361.233 368.242C-441.073 400.706 -553.617 454.486 -681.387 538.753" stroke="#6536F1" stroke-width="0.903173" stroke-miterlimit="10" class="QftVxylD_20"></path>
<path d="M716.181 345.121C606.383 456.755 499.519 468.273 462.266 469.995C383.437 473.648 318.05 447.284 196.807 398.401C57.8223 342.366 63.3428 321.804 -6.80589 305.229C-121.724 278.086 -217.875 314.05 -368.026 370.215C-449.387 400.644 -563.55 451.128 -688.384 534.863" stroke="#6536F1" stroke-width="0.903173" stroke-miterlimit="10" class="QftVxylD_21"></path>
</g>
<style data-made-with="vivus-instant">.QftVxylD_0{stroke-dasharray:1702 1704;stroke-dashoffset:1703;animation:QftVxylD_draw_0 4700ms linear 0ms infinite,QftVxylD_fade 4700ms linear 0ms infinite;}.QftVxylD_1{stroke-dasharray:1669 1671;stroke-dashoffset:1670;animation:QftVxylD_draw_1 4700ms linear 0ms infinite,QftVxylD_fade 4700ms linear 0ms infinite;}.QftVxylD_2{stroke-dasharray:1640 1642;stroke-dashoffset:1641;animation:QftVxylD_draw_2 4700ms linear 0ms infinite,QftVxylD_fade 4700ms linear 0ms infinite;}.QftVxylD_3{stroke-dasharray:1612 1614;stroke-dashoffset:1613;animation:QftVxylD_draw_3 4700ms linear 0ms infinite,QftVxylD_fade 4700ms linear 0ms infinite;}.QftVxylD_4{stroke-dasharray:1587 1589;stroke-dashoffset:1588;animation:QftVxylD_draw_4 4700ms linear 0ms infinite,QftVxylD_fade 4700ms linear 0ms infinite;}.QftVxylD_5{stroke-dasharray:1565 1567;stroke-dashoffset:1566;animation:QftVxylD_draw_5 4700ms linear 0ms infinite,QftVxylD_fade 4700ms linear 0ms infinite;}.QftVxylD_6{stroke-dasharray:1544 1546;stroke-dashoffset:1545;animation:QftVxylD_draw_6 4700ms linear 0ms infinite,QftVxylD_fade 4700ms linear 0ms infinite;}.QftVxylD_7{stroke-dasharray:1526 1528;stroke-dashoffset:1527;animation:QftVxylD_draw_7 4700ms linear 0ms infinite,QftVxylD_fade 4700ms linear 0ms infinite;}.QftVxylD_8{stroke-dasharray:1511 1513;stroke-dashoffset:1512;animation:QftVxylD_draw_8 4700ms linear 0ms infinite,QftVxylD_fade 4700ms linear 0ms infinite;}.QftVxylD_9{stroke-dasharray:1497 1499;stroke-dashoffset:1498;animation:QftVxylD_draw_9 4700ms linear 0ms infinite,QftVxylD_fade 4700ms linear 0ms infinite;}.QftVxylD_10{stroke-dasharray:1486 1488;stroke-dashoffset:1487;animation:QftVxylD_draw_10 4700ms linear 0ms infinite,QftVxylD_fade 4700ms linear 0ms infinite;}.QftVxylD_11{stroke-dasharray:1478 1480;stroke-dashoffset:1479;animation:QftVxylD_draw_11 4700ms linear 0ms infinite,QftVxylD_fade 4700ms linear 0ms infinite;}.QftVxylD_12{stroke-dasharray:1472 1474;stroke-dashoffset:1473;animation:QftVxylD_draw_12 4700ms linear 0ms infinite,QftVxylD_fade 4700ms linear 0ms infinite;}.QftVxylD_13{stroke-dasharray:1468 1470;stroke-dashoffset:1469;animation:QftVxylD_draw_13 4700ms linear 0ms infinite,QftVxylD_fade 4700ms linear 0ms infinite;}.QftVxylD_14{stroke-dasharray:1467 1469;stroke-dashoffset:1468;animation:QftVxylD_draw_14 4700ms linear 0ms infinite,QftVxylD_fade 4700ms linear 0ms infinite;}.QftVxylD_15{stroke-dasharray:1468 1470;stroke-dashoffset:1469;animation:QftVxylD_draw_15 4700ms linear 0ms infinite,QftVxylD_fade 4700ms linear 0ms infinite;}.QftVxylD_16{stroke-dasharray:1472 1474;stroke-dashoffset:1473;animation:QftVxylD_draw_16 4700ms linear 0ms infinite,QftVxylD_fade 4700ms linear 0ms infinite;}.QftVxylD_17{stroke-dasharray:1478 1480;stroke-dashoffset:1479;animation:QftVxylD_draw_17 4700ms linear 0ms infinite,QftVxylD_fade 4700ms linear 0ms infinite;}.QftVxylD_18{stroke-dasharray:1487 1489;stroke-dashoffset:1488;animation:QftVxylD_draw_18 4700ms linear 0ms infinite,QftVxylD_fade 4700ms linear 0ms infinite;}.QftVxylD_19{stroke-dasharray:1498 1500;stroke-dashoffset:1499;animation:QftVxylD_draw_19 4700ms linear 0ms infinite,QftVxylD_fade 4700ms linear 0ms infinite;}.QftVxylD_20{stroke-dasharray:1511 1513;stroke-dashoffset:1512;animation:QftVxylD_draw_20 4700ms linear 0ms infinite,QftVxylD_fade 4700ms linear 0ms infinite;}.QftVxylD_21{stroke-dasharray:1526 1528;stroke-dashoffset:1527;animation:QftVxylD_draw_21 4700ms linear 0ms infinite,QftVxylD_fade 4700ms linear 0ms infinite;}@keyframes QftVxylD_draw{100%{stroke-dashoffset:0;}}@keyframes QftVxylD_fade{0%{stroke-opacity:1;}91.48936170212767%{stroke-opacity:1;}100%{stroke-opacity:0;}}@keyframes QftVxylD_draw_0{6.382978723404255%{stroke-dashoffset: 1703}48.93617021276596%{ stroke-dashoffset: 0;}100%{ stroke-dashoffset: 0;}}@keyframes QftVxylD_draw_1{7.396149949341438%{stroke-dashoffset: 1670}49.949341438703144%{ stroke-dashoffset: 0;}100%{ stroke-dashoffset: 0;}}@keyframes QftVxylD_draw_2{8.409321175278622%{stroke-dashoffset: 1641}50.96251266464032%{ stroke-dashoffset: 0;}100%{ stroke-dashoffset: 0;}}@keyframes QftVxylD_draw_3{9.422492401215807%{stroke-dashoffset: 1613}51.975683890577514%{ stroke-dashoffset: 0;}100%{ stroke-dashoffset: 0;}}@keyframes QftVxylD_draw_4{10.435663627152989%{stroke-dashoffset: 1588}52.988855116514685%{ stroke-dashoffset: 0;}100%{ stroke-dashoffset: 0;}}@keyframes QftVxylD_draw_5{11.44883485309017%{stroke-dashoffset: 1566}54.00202634245187%{ stroke-dashoffset: 0;}100%{ stroke-dashoffset: 0;}}@keyframes QftVxylD_draw_6{12.462006079027358%{stroke-dashoffset: 1545}55.01519756838906%{ stroke-dashoffset: 0;}100%{ stroke-dashoffset: 0;}}@keyframes QftVxylD_draw_7{13.47517730496454%{stroke-dashoffset: 1527}56.02836879432624%{ stroke-dashoffset: 0;}100%{ stroke-dashoffset: 0;}}@keyframes QftVxylD_draw_8{14.488348530901723%{stroke-dashoffset: 1512}57.04154002026341%{ stroke-dashoffset: 0;}100%{ stroke-dashoffset: 0;}}@keyframes QftVxylD_draw_9{15.501519756838904%{stroke-dashoffset: 1498}58.05471124620061%{ stroke-dashoffset: 0;}100%{ stroke-dashoffset: 0;}}@keyframes QftVxylD_draw_10{16.514690982776088%{stroke-dashoffset: 1487}59.06788247213779%{ stroke-dashoffset: 0;}100%{ stroke-dashoffset: 0;}}@keyframes QftVxylD_draw_11{17.527862208713273%{stroke-dashoffset: 1479}60.08105369807497%{ stroke-dashoffset: 0;}100%{ stroke-dashoffset: 0;}}@keyframes QftVxylD_draw_12{18.541033434650455%{stroke-dashoffset: 1473}61.09422492401217%{ stroke-dashoffset: 0;}100%{ stroke-dashoffset: 0;}}@keyframes QftVxylD_draw_13{19.55420466058764%{stroke-dashoffset: 1469}62.107396149949345%{ stroke-dashoffset: 0;}100%{ stroke-dashoffset: 0;}}@keyframes QftVxylD_draw_14{20.567375886524825%{stroke-dashoffset: 1468}63.12056737588653%{ stroke-dashoffset: 0;}100%{ stroke-dashoffset: 0;}}@keyframes QftVxylD_draw_15{21.580547112462007%{stroke-dashoffset: 1469}64.13373860182371%{ stroke-dashoffset: 0;}100%{ stroke-dashoffset: 0;}}@keyframes QftVxylD_draw_16{22.593718338399192%{stroke-dashoffset: 1473}65.1469098277609%{ stroke-dashoffset: 0;}100%{ stroke-dashoffset: 0;}}@keyframes QftVxylD_draw_17{23.606889564336374%{stroke-dashoffset: 1479}66.16008105369808%{ stroke-dashoffset: 0;}100%{ stroke-dashoffset: 0;}}@keyframes QftVxylD_draw_18{24.620060790273556%{stroke-dashoffset: 1488}67.17325227963525%{ stroke-dashoffset: 0;}100%{ stroke-dashoffset: 0;}}@keyframes QftVxylD_draw_19{25.633232016210737%{stroke-dashoffset: 1499}68.18642350557244%{ stroke-dashoffset: 0;}100%{ stroke-dashoffset: 0;}}@keyframes QftVxylD_draw_20{26.64640324214792%{stroke-dashoffset: 1512}69.19959473150963%{ stroke-dashoffset: 0;}100%{ stroke-dashoffset: 0;}}@keyframes QftVxylD_draw_21{27.659574468085108%{stroke-dashoffset: 1527}70.2127659574468%{ stroke-dashoffset: 0;}100%{ stroke-dashoffset: 0;}}</style></svg>
