<svg width="1325" height="597" viewBox="0 0 1325 597" fill="none" xmlns="http://www.w3.org/2000/svg" style="">
<g opacity="0.2">
<path d="M1 103.479C186.763 172.721 286.895 264.043 344.645 338.751C392.786 401.035 391.932 426.513 443.05 472.982C553.981 573.818 766.481 643.354 869.471 556.699C920.204 514.013 901.437 459.918 925.704 357.513C947.535 265.392 1003.98 138.695 1161.56 1" stroke="#6536F1" stroke-width="0.903173" stroke-miterlimit="10" class="HYoAKLNT_0"></path>
<path d="M1.37146 125.819C182.056 185.327 281.188 271.239 338.907 341.156C387.473 400.001 391.422 423.533 445.719 469.203C559.621 565.01 759.186 631.71 862.32 550.856C915.444 509.212 903.359 456.043 931.792 353.938C956.825 264.046 1014.42 139.515 1169.29 3.05518" stroke="#6536F1" stroke-width="0.903173" stroke-miterlimit="10" class="HYoAKLNT_1"></path>
<path d="M1.74347 148.156C177.347 197.933 275.554 278.456 333.18 343.56C382.272 399.023 390.826 420.555 448.398 465.424C565.02 556.312 752.21 620.221 855.186 545.015C910.815 504.384 905.205 452.22 937.895 350.366C966.03 262.724 1024.88 140.344 1177.04 5.12549" stroke="#6536F1" stroke-width="0.903173" stroke-miterlimit="10" class="HYoAKLNT_2"></path>
<path d="M2.11444 170.496C172.637 210.542 270.017 285.696 327.452 345.984C377.133 398.104 390.132 417.6 451.09 461.642C570.201 547.739 745.533 608.906 848.058 539.172C906.31 499.556 906.966 448.442 944.007 346.792C975.112 261.422 1035.34 141.174 1184.78 7.18701" stroke="#6536F1" stroke-width="0.903173" stroke-miterlimit="10" class="HYoAKLNT_3"></path>
<path d="M2.48749 192.833C167.946 223.142 264.596 292.935 321.726 348.373C372.084 397.234 389.383 414.672 453.751 457.863C575.142 539.293 739.101 597.776 840.901 533.329C901.893 494.718 908.602 444.687 950.091 343.217C984.067 260.125 1045.79 142 1192.49 9.26367" stroke="#6536F1" stroke-width="0.903173" stroke-miterlimit="10" class="HYoAKLNT_4"></path>
<path d="M2.85944 215.17C163.224 235.748 259.297 300.177 315.998 350.778C367.14 396.417 388.512 411.787 456.431 454.081C579.919 530.986 732.931 586.835 833.76 527.488C897.603 489.909 910.126 440.952 956.19 339.642C992.922 258.825 1056.24 142.83 1200.23 11.3096" stroke="#6536F1" stroke-width="0.903173" stroke-miterlimit="10" class="HYoAKLNT_5"></path>
<path d="M3.23096 237.506C158.514 248.339 254.146 307.389 310.271 353.183C362.31 395.644 387.584 408.952 459.107 450.302C584.541 522.815 726.982 576.093 826.619 521.645C893.416 485.142 911.58 437.216 962.289 336.071C1001.67 257.513 1066.71 143.659 1207.97 13.374" stroke="#6536F1" stroke-width="0.903173" stroke-miterlimit="10" class="HYoAKLNT_6"></path>
<path d="M3.61511 259.846C153.818 260.957 249.167 314.566 304.556 355.588C357.627 394.895 386.615 406.179 461.795 446.523C589.038 514.783 721.247 565.545 819.491 515.802C889.345 480.435 912.915 433.474 968.401 332.496C1010.32 256.185 1077.14 144.498 1215.7 15.4353" stroke="#6536F1" stroke-width="0.903173" stroke-miterlimit="10" class="HYoAKLNT_7"></path>
<path d="M3.97388 282.183C149.095 273.563 244.338 321.676 298.815 357.996C353.075 394.158 385.537 403.493 464.462 442.741C593.412 506.888 715.664 555.195 812.337 509.961C885.353 475.805 914.114 429.701 974.487 328.921C1018.87 254.829 1087.6 145.315 1223.46 17.4966" stroke="#6536F1" stroke-width="0.903173" stroke-miterlimit="10" class="HYoAKLNT_8"></path>
<path d="M4.34534 304.51C144.389 286.16 239.699 328.682 293.088 360.391C348.664 393.396 384.432 400.837 467.138 438.952C597.689 499.113 710.221 545.025 805.196 504.108C881.444 471.261 915.219 425.882 980.586 325.337C1027.34 253.43 1098.05 146.135 1231.17 19.5483" stroke="#6536F1" stroke-width="0.903173" stroke-miterlimit="10" class="HYoAKLNT_9"></path>
<path d="M4.71838 326.86C139.698 298.775 235.242 335.591 287.365 362.805C344.431 392.604 383.287 398.296 469.818 435.179C601.911 491.484 704.907 535.062 798.056 498.278C877.627 466.854 916.215 422.029 986.686 321.771C1035.72 252.013 1108.51 146.974 1238.91 21.6252" stroke="#6536F1" stroke-width="0.903173" stroke-miterlimit="10" class="HYoAKLNT_10"></path>
<path d="M5.09039 349.196C134.972 311.378 230.955 342.341 281.638 365.21C340.359 391.71 382.119 395.832 472.495 431.4C606.081 483.966 699.689 525.266 790.916 492.434C873.883 462.576 917.11 418.104 992.786 318.2C1044.03 250.542 1118.96 147.8 1246.64 23.6833" stroke="#6536F1" stroke-width="0.903173" stroke-miterlimit="10" class="HYoAKLNT_11"></path>
<path d="M5.46185 371.536C130.263 323.984 226.815 348.918 275.91 367.618C336.44 390.673 380.893 393.452 475.174 427.621C610.217 476.563 694.537 515.644 783.778 486.591C870.192 458.457 917.907 414.108 998.884 314.625C1052.28 249.026 1129.42 148.629 1254.38 25.7446" stroke="#6536F1" stroke-width="0.903173" stroke-miterlimit="10" class="HYoAKLNT_12"></path>
<path d="M5.83282 393.873C125.556 336.591 222.798 355.303 270.182 370.023C332.657 389.432 379.659 391.162 477.843 423.839C614.323 469.262 689.425 506.167 776.63 480.751C866.57 454.52 918.603 410.026 1004.98 311.05C1060.48 247.457 1139.87 149.45 1262.11 27.8154" stroke="#6536F1" stroke-width="0.903173" stroke-miterlimit="10" class="HYoAKLNT_13"></path>
<path d="M6.20483 416.21C120.847 349.193 218.863 361.48 264.441 372.428C328.963 387.921 378.4 388.958 480.515 420.06C618.426 462.063 684.335 496.872 769.482 474.907C862.98 450.787 919.219 405.854 1011.07 307.466C1068.62 245.826 1150.31 150.276 1269.84 29.8579" stroke="#6536F1" stroke-width="0.903173" stroke-miterlimit="10" class="HYoAKLNT_14"></path>
<path d="M6.57629 438.55C116.154 361.799 214.961 367.448 258.727 374.832C325.346 386.074 377.157 386.844 483.205 416.278C622.539 454.966 679.263 487.708 762.355 469.067C859.436 447.281 919.775 401.595 1017.18 303.904C1076.75 244.157 1160.78 151.115 1277.58 31.9316" stroke="#6536F1" stroke-width="0.903173" stroke-miterlimit="10" class="HYoAKLNT_15"></path>
<path d="M6.96466 460.887C111.445 374.405 211.511 384.402 253.016 377.24C320.904 365.523 375.918 384.82 485.901 412.499C626.675 447.934 674.159 478.68 755.213 463.223C855.892 444.034 920.254 397.21 1023.28 300.329C1084.84 242.434 1171.23 151.944 1285.32 34.0054" stroke="#6536F1" stroke-width="0.903173" stroke-miterlimit="10" class="HYoAKLNT_16"></path>
<path d="M7.3208 483.223C106.723 387.011 207.981 388.024 247.273 379.645C316.139 364.963 374.646 382.88 488.561 408.72C630.826 441.001 668.995 469.785 748.074 457.38C852.339 441.044 920.677 392.731 1029.38 296.748C1092.92 240.645 1181.69 152.765 1293.06 36.0481" stroke="#6536F1" stroke-width="0.903173" stroke-miterlimit="10" class="HYoAKLNT_17"></path>
<path d="M7.69226 505.563C102.014 399.614 203.989 391.289 241.545 382.05C311.651 364.808 373.396 381.026 491.24 404.953C634.999 434.127 663.766 460.992 740.933 451.555C848.759 438.367 921.051 388.156 1035.48 293.195C1100.99 238.831 1192.14 153.609 1300.79 38.1309" stroke="#6536F1" stroke-width="0.903173" stroke-miterlimit="10" class="HYoAKLNT_18"></path>
<path d="M8.06372 527.9C97.3043 412.22 198.325 389.552 235.821 384.455C309.678 374.436 372.167 379.249 493.92 401.168C639.215 427.312 658.447 452.289 733.795 445.705C845.121 435.968 921.386 383.434 1041.58 289.605C1109.06 236.927 1202.6 154.43 1308.53 40.1768" stroke="#6536F1" stroke-width="0.903173" stroke-miterlimit="10" class="HYoAKLNT_19"></path>
<path d="M8.43524 550.237C92.5948 424.826 193.655 394.808 230.09 386.863C304.998 370.53 370.944 377.553 496.592 397.386C643.459 420.558 653.008 443.681 726.65 439.862C841.403 433.913 921.694 378.642 1047.68 286.039C1117.12 234.993 1213.05 155.265 1316.26 42.2473" stroke="#6536F1" stroke-width="0.903173" stroke-miterlimit="10" class="HYoAKLNT_20"></path>
<path d="M8.8067 572.577C87.8886 437.432 188.668 400.069 224.362 389.268C299.89 366.402 369.745 375.931 499.271 393.601C647.752 413.855 647.441 435.142 719.512 434.016C837.578 432.159 921.978 373.721 1053.78 282.461C1125.2 233.015 1223.5 156.085 1324 44.3025" stroke="#6536F1" stroke-width="0.903173" stroke-miterlimit="10" class="HYoAKLNT_21"></path>
</g>
<style data-made-with="vivus-instant">.HYoAKLNT_0{stroke-dasharray:1702 1704;stroke-dashoffset:1703;animation:HYoAKLNT_draw_0 7200ms linear 0ms infinite,HYoAKLNT_fade 7200ms linear 0ms infinite;}.HYoAKLNT_1{stroke-dasharray:1669 1671;stroke-dashoffset:1670;animation:HYoAKLNT_draw_1 7200ms linear 0ms infinite,HYoAKLNT_fade 7200ms linear 0ms infinite;}.HYoAKLNT_2{stroke-dasharray:1640 1642;stroke-dashoffset:1641;animation:HYoAKLNT_draw_2 7200ms linear 0ms infinite,HYoAKLNT_fade 7200ms linear 0ms infinite;}.HYoAKLNT_3{stroke-dasharray:1612 1614;stroke-dashoffset:1613;animation:HYoAKLNT_draw_3 7200ms linear 0ms infinite,HYoAKLNT_fade 7200ms linear 0ms infinite;}.HYoAKLNT_4{stroke-dasharray:1587 1589;stroke-dashoffset:1588;animation:HYoAKLNT_draw_4 7200ms linear 0ms infinite,HYoAKLNT_fade 7200ms linear 0ms infinite;}.HYoAKLNT_5{stroke-dasharray:1565 1567;stroke-dashoffset:1566;animation:HYoAKLNT_draw_5 7200ms linear 0ms infinite,HYoAKLNT_fade 7200ms linear 0ms infinite;}.HYoAKLNT_6{stroke-dasharray:1544 1546;stroke-dashoffset:1545;animation:HYoAKLNT_draw_6 7200ms linear 0ms infinite,HYoAKLNT_fade 7200ms linear 0ms infinite;}.HYoAKLNT_7{stroke-dasharray:1526 1528;stroke-dashoffset:1527;animation:HYoAKLNT_draw_7 7200ms linear 0ms infinite,HYoAKLNT_fade 7200ms linear 0ms infinite;}.HYoAKLNT_8{stroke-dasharray:1511 1513;stroke-dashoffset:1512;animation:HYoAKLNT_draw_8 7200ms linear 0ms infinite,HYoAKLNT_fade 7200ms linear 0ms infinite;}.HYoAKLNT_9{stroke-dasharray:1497 1499;stroke-dashoffset:1498;animation:HYoAKLNT_draw_9 7200ms linear 0ms infinite,HYoAKLNT_fade 7200ms linear 0ms infinite;}.HYoAKLNT_10{stroke-dasharray:1486 1488;stroke-dashoffset:1487;animation:HYoAKLNT_draw_10 7200ms linear 0ms infinite,HYoAKLNT_fade 7200ms linear 0ms infinite;}.HYoAKLNT_11{stroke-dasharray:1478 1480;stroke-dashoffset:1479;animation:HYoAKLNT_draw_11 7200ms linear 0ms infinite,HYoAKLNT_fade 7200ms linear 0ms infinite;}.HYoAKLNT_12{stroke-dasharray:1472 1474;stroke-dashoffset:1473;animation:HYoAKLNT_draw_12 7200ms linear 0ms infinite,HYoAKLNT_fade 7200ms linear 0ms infinite;}.HYoAKLNT_13{stroke-dasharray:1468 1470;stroke-dashoffset:1469;animation:HYoAKLNT_draw_13 7200ms linear 0ms infinite,HYoAKLNT_fade 7200ms linear 0ms infinite;}.HYoAKLNT_14{stroke-dasharray:1467 1469;stroke-dashoffset:1468;animation:HYoAKLNT_draw_14 7200ms linear 0ms infinite,HYoAKLNT_fade 7200ms linear 0ms infinite;}.HYoAKLNT_15{stroke-dasharray:1468 1470;stroke-dashoffset:1469;animation:HYoAKLNT_draw_15 7200ms linear 0ms infinite,HYoAKLNT_fade 7200ms linear 0ms infinite;}.HYoAKLNT_16{stroke-dasharray:1472 1474;stroke-dashoffset:1473;animation:HYoAKLNT_draw_16 7200ms linear 0ms infinite,HYoAKLNT_fade 7200ms linear 0ms infinite;}.HYoAKLNT_17{stroke-dasharray:1478 1480;stroke-dashoffset:1479;animation:HYoAKLNT_draw_17 7200ms linear 0ms infinite,HYoAKLNT_fade 7200ms linear 0ms infinite;}.HYoAKLNT_18{stroke-dasharray:1487 1489;stroke-dashoffset:1488;animation:HYoAKLNT_draw_18 7200ms linear 0ms infinite,HYoAKLNT_fade 7200ms linear 0ms infinite;}.HYoAKLNT_19{stroke-dasharray:1498 1500;stroke-dashoffset:1499;animation:HYoAKLNT_draw_19 7200ms linear 0ms infinite,HYoAKLNT_fade 7200ms linear 0ms infinite;}.HYoAKLNT_20{stroke-dasharray:1511 1513;stroke-dashoffset:1512;animation:HYoAKLNT_draw_20 7200ms linear 0ms infinite,HYoAKLNT_fade 7200ms linear 0ms infinite;}.HYoAKLNT_21{stroke-dasharray:1526 1528;stroke-dashoffset:1527;animation:HYoAKLNT_draw_21 7200ms linear 0ms infinite,HYoAKLNT_fade 7200ms linear 0ms infinite;}@keyframes HYoAKLNT_draw{100%{stroke-dashoffset:0;}}@keyframes HYoAKLNT_fade{0%{stroke-opacity:1;}94.44444444444444%{stroke-opacity:1;}100%{stroke-opacity:0;}}@keyframes HYoAKLNT_draw_0{11.11111111111111%{stroke-dashoffset: 1703}38.88888888888889%{ stroke-dashoffset: 0;}100%{ stroke-dashoffset: 0;}}@keyframes HYoAKLNT_draw_1{11.772486772486772%{stroke-dashoffset: 1670}39.55026455026455%{ stroke-dashoffset: 0;}100%{ stroke-dashoffset: 0;}}@keyframes HYoAKLNT_draw_2{12.433862433862434%{stroke-dashoffset: 1641}40.211640211640216%{ stroke-dashoffset: 0;}100%{ stroke-dashoffset: 0;}}@keyframes HYoAKLNT_draw_3{13.095238095238097%{stroke-dashoffset: 1613}40.87301587301588%{ stroke-dashoffset: 0;}100%{ stroke-dashoffset: 0;}}@keyframes HYoAKLNT_draw_4{13.756613756613756%{stroke-dashoffset: 1588}41.53439153439153%{ stroke-dashoffset: 0;}100%{ stroke-dashoffset: 0;}}@keyframes HYoAKLNT_draw_5{14.417989417989418%{stroke-dashoffset: 1566}42.195767195767196%{ stroke-dashoffset: 0;}100%{ stroke-dashoffset: 0;}}@keyframes HYoAKLNT_draw_6{15.07936507936508%{stroke-dashoffset: 1545}42.85714285714286%{ stroke-dashoffset: 0;}100%{ stroke-dashoffset: 0;}}@keyframes HYoAKLNT_draw_7{15.740740740740744%{stroke-dashoffset: 1527}43.518518518518526%{ stroke-dashoffset: 0;}100%{ stroke-dashoffset: 0;}}@keyframes HYoAKLNT_draw_8{16.402116402116402%{stroke-dashoffset: 1512}44.17989417989418%{ stroke-dashoffset: 0;}100%{ stroke-dashoffset: 0;}}@keyframes HYoAKLNT_draw_9{17.06349206349206%{stroke-dashoffset: 1498}44.841269841269835%{ stroke-dashoffset: 0;}100%{ stroke-dashoffset: 0;}}@keyframes HYoAKLNT_draw_10{17.724867724867725%{stroke-dashoffset: 1487}45.5026455026455%{ stroke-dashoffset: 0;}100%{ stroke-dashoffset: 0;}}@keyframes HYoAKLNT_draw_11{18.386243386243386%{stroke-dashoffset: 1479}46.164021164021165%{ stroke-dashoffset: 0;}100%{ stroke-dashoffset: 0;}}@keyframes HYoAKLNT_draw_12{19.04761904761905%{stroke-dashoffset: 1473}46.82539682539682%{ stroke-dashoffset: 0;}100%{ stroke-dashoffset: 0;}}@keyframes HYoAKLNT_draw_13{19.70899470899471%{stroke-dashoffset: 1469}47.48677248677249%{ stroke-dashoffset: 0;}100%{ stroke-dashoffset: 0;}}@keyframes HYoAKLNT_draw_14{20.370370370370374%{stroke-dashoffset: 1468}48.14814814814815%{ stroke-dashoffset: 0;}100%{ stroke-dashoffset: 0;}}@keyframes HYoAKLNT_draw_15{21.03174603174603%{stroke-dashoffset: 1469}48.80952380952381%{ stroke-dashoffset: 0;}100%{ stroke-dashoffset: 0;}}@keyframes HYoAKLNT_draw_16{21.693121693121693%{stroke-dashoffset: 1473}49.47089947089947%{ stroke-dashoffset: 0;}100%{ stroke-dashoffset: 0;}}@keyframes HYoAKLNT_draw_17{22.354497354497354%{stroke-dashoffset: 1479}50.13227513227514%{ stroke-dashoffset: 0;}100%{ stroke-dashoffset: 0;}}@keyframes HYoAKLNT_draw_18{23.015873015873016%{stroke-dashoffset: 1488}50.79365079365079%{ stroke-dashoffset: 0;}100%{ stroke-dashoffset: 0;}}@keyframes HYoAKLNT_draw_19{23.677248677248677%{stroke-dashoffset: 1499}51.455026455026456%{ stroke-dashoffset: 0;}100%{ stroke-dashoffset: 0;}}@keyframes HYoAKLNT_draw_20{24.33862433862434%{stroke-dashoffset: 1512}52.116402116402114%{ stroke-dashoffset: 0;}100%{ stroke-dashoffset: 0;}}@keyframes HYoAKLNT_draw_21{25%{stroke-dashoffset: 1527}52.77777777777778%{ stroke-dashoffset: 0;}100%{ stroke-dashoffset: 0;}}</style></svg>
